
        <svg xmlns="http://www.w3.org/2000/svg" xmlns:xlink="http://www.w3.org/1999/xlink" version="1.1" width="2936.5079365079364" 
        height="3158.7301587301586" viewBox="0 0 2936.5079365079364 3158.7301587301586">
			
			<g transform="scale(7.936507936507937) translate(10, 10)">
				<defs id="SvgjsDefs1175"><linearGradient id="SvgjsLinearGradient1184"><stop id="SvgjsStop1185" stop-color="#fbb040" offset="0"></stop><stop id="SvgjsStop1186" stop-color="#f9ed32" offset="1"></stop></linearGradient><linearGradient id="SvgjsLinearGradient1187"><stop id="SvgjsStop1188" stop-color="#fbb040" offset="0"></stop><stop id="SvgjsStop1189" stop-color="#f9ed32" offset="1"></stop></linearGradient></defs><g id="SvgjsG1176" featureKey="rootContainer" transform="matrix(1,0,0,1,0,0)" fill="#ffffff"><path xmlns="http://www.w3.org/2000/svg" fill-rule="evenodd" d="M5,65 L175,0 L345, 65 L175, 10 z M5,298 L175,378 L345,293 L175, 368 z"></path></g><g id="SvgjsG1177" featureKey="symbolFeature-0" transform="matrix(1.4957264957264955,0,0,1.4957264957264955,100.52136752136752,57.004272363124755)" fill="url(#SvgjsLinearGradient1184)"><path xmlns="http://www.w3.org/2000/svg" d="M5,20.1l7.4-7.4l26.1,26.1l7.5,7.4l-7.5,7.4L12.4,79.7L5,72.3l26.1-26.1L5,20.1z M95,87.3V75.7H48.8v11.6H95z"></path></g><g id="SvgjsG1178" featureKey="nameFeature-0" transform="matrix(1.5078409028533977,0,0,1.5078409028533977,-2.412545300766522,203.90591060374837)" fill="#ffffff"><path d="M8.32 28.52 l0 -5.04 l4.48 0 l0 -11.48 l5.04 0 l0 16.52 l-9.52 0 z M1.6 40 l0 -28 l5.04 0 l0 28 l-5.04 0 z M12.8 40 l0 -9.8 l5.04 0 l0 9.8 l-5.04 0 z M20.240000000000002 40 l2.28 -11.2 l8.56 0 l-1.72 -8.56 l-1.36 6.88 l-5.16 0 l3.04 -15.12 l6.96 0 l4.4 21.84 l-10.6 0 l-1.24 6.16 l-5.16 0 z M33.36 40 l-0.92 -4.48 l5.16 0 l0.88 4.48 l-5.12 0 z M52.28 40 l-2.72 -10.36 l-1.96 0 l0 -5.04 l3.16 0 l0.76 -0.76 l0 -6.04 l-0.76 -0.76 l-3.16 0 l0 -5.04 l5.24 0 l3.72 3.72 l0 10.2 l-2.16 2.2 l3.08 11.88 l-5.2 0 z M40.88 40 l0 -8.68 l5.04 0 l0 8.68 l-5.04 0 z M40.88 29.64 l0 -17.64 l5.04 0 l0 17.64 l-5.04 0 z M65.60000000000001 40 l0 -21.28 l5.04 0 l0 21.28 l-5.04 0 z M60.28000000000001 17.04 l0 -5.04 l15.68 0 l0 5.04 l-15.68 0 z M82.88 40 l-3.72 -3.72 l0 -20.56 l3.72 -3.72 l3.56 0 l0 5.04 l-1.48 0 l-0.76 0.76 l0 16.4 l0.76 0.76 l1.48 0 l0 5.04 l-3.56 0 z M88.12 40 l0 -5.04 l1.48 0 l0.76 -0.76 l0 -3.16 l5.04 0 l0 5.24 l-3.72 3.72 l-3.56 0 z M90.36 20.96 l0 -3.16 l-0.76 -0.76 l-1.48 0 l0 -5.04 l3.56 0 l3.72 3.72 l0 5.24 l-5.04 0 z M107.72 40 l0 -5.04 l1.6 0 l0.76 -0.76 l0 -16.4 l-0.76 -0.76 l-1.6 0 l0 -5.04 l3.68 0 l3.72 3.72 l0 20.56 l-3.72 3.72 l-3.68 0 z M102.32 40 l-3.72 -3.72 l0 -20.56 l3.72 -3.72 l3.68 0 l0 5.04 l-1.6 0 l-0.76 0.76 l0 16.4 l0.76 0.76 l1.6 0 l0 5.04 l-3.68 0 z M129.72 40 l-2.72 -10.36 l-1.96 0 l0 -5.04 l3.16 0 l0.76 -0.76 l0 -6.04 l-0.76 -0.76 l-3.16 0 l0 -5.04 l5.24 0 l3.72 3.72 l0 10.2 l-2.16 2.2 l3.08 11.88 l-5.2 0 z M118.32 40 l0 -8.68 l5.04 0 l0 8.68 l-5.04 0 z M118.32 29.64 l0 -17.64 l5.04 0 l0 17.64 l-5.04 0 z M137.72 28.52 l0 -16.52 l5.04 0 l0 16.52 l-5.04 0 z M137.72 40 l0 -9.8 l5.04 0 l0 9.8 l-5.04 0 z M144.44 40 l0 -5.04 l7 0 l0 5.04 l-7 0 z M144.44 28.52 l0 -5.04 l4.76 0 l0 5.04 l-4.76 0 z M144.44 17.04 l0 -5.04 l7 0 l0 5.04 l-7 0 z M167.56 40 l0 -21.28 l5.04 0 l0 21.28 l-5.04 0 z M162.24 17.04 l0 -5.04 l15.68 0 l0 5.04 l-15.68 0 z M181.12 28.52 l0 -16.52 l5.04 0 l0 16.52 l-5.04 0 z M181.12 40 l0 -9.8 l5.04 0 l0 9.8 l-5.04 0 z M187.84 40 l0 -5.04 l7 0 l0 5.04 l-7 0 z M187.84 28.52 l0 -5.04 l4.76 0 l0 5.04 l-4.76 0 z M187.84 17.04 l0 -5.04 l7 0 l0 5.04 l-7 0 z M201.76 40 l-3.72 -3.72 l0 -20.56 l3.72 -3.72 l3.56 0 l0 5.04 l-1.48 0 l-0.76 0.76 l0 16.4 l0.76 0.76 l1.48 0 l0 5.04 l-3.56 0 z M207 40 l0 -5.04 l1.48 0 l0.76 -0.76 l0 -3.16 l5.04 0 l0 5.24 l-3.72 3.72 l-3.56 0 z M209.24 20.96 l0 -3.16 l-0.76 -0.76 l-1.48 0 l0 -5.04 l3.56 0 l3.72 3.72 l0 5.24 l-5.04 0 z M224.2 28.52 l0 -5.04 l4.48 0 l0 -11.48 l5.04 0 l0 16.52 l-9.52 0 z M217.48 40 l0 -28 l5.04 0 l0 28 l-5.04 0 z M228.68 40 l0 -9.8 l5.04 0 l0 9.8 l-5.04 0 z"></path></g><g id="SvgjsG1179" featureKey="sloganFeature-0" transform="matrix(0.9945987095274739,0,0,0.9945987095274739,71.20432096123878,268.0324086913584)" fill="url(#SvgjsLinearGradient1187)"><path d="M2.66 14.26 l-1.86 -1.86 l0 -4.54 l1.86 -1.86 l1.64 0 l0 2.52 l-0.6 0 l-0.38 0.38 l0 2.46 l0.38 0.38 l3.08 0 l1.86 1.86 l0 0.66 l-5.98 0 z M2.66 20 l-1.86 -1.86 l0 -2.62 l2.52 0 l0 1.58 l0.38 0.38 l2.04 0 l0.38 -0.38 l0 -2 l2.52 0 l0 3.04 l-1.86 1.86 l-4.12 0 z M6.12 10.48 l0 -1.58 l-0.38 -0.38 l-0.6 0 l0 -2.52 l1.64 0 l1.86 1.86 l0 2.62 l-2.52 0 z M15.5565 15.1 l0 -2.52 l1.58 0 l0.38 -0.38 l0 -3.3 l-0.38 -0.38 l-1.58 0 l0 -2.52 l2.62 0 l1.86 1.86 l0 5.38 l-1.86 1.86 l-2.62 0 z M12.1965 20 l0 -4.06 l2.52 0 l0 4.06 l-2.52 0 z M12.1965 15.1 l0 -9.1 l2.52 0 l0 9.1 l-2.52 0 z M23.593 14.26 l0 -8.26 l2.52 0 l0 8.26 l-2.52 0 z M23.593 20 l0 -4.9 l2.52 0 l0 4.9 l-2.52 0 z M26.953 20 l0 -2.52 l3.5 0 l0 2.52 l-3.5 0 z M26.953 14.26 l0 -2.52 l2.38 0 l0 2.52 l-2.38 0 z M26.953 8.52 l0 -2.52 l3.5 0 l0 2.52 l-3.5 0 z M35.8695 20 l-1.86 -1.86 l0 -10.28 l1.86 -1.86 l1.78 0 l0 2.52 l-0.74 0 l-0.38 0.38 l0 8.2 l0.38 0.38 l0.74 0 l0 2.52 l-1.78 0 z M38.4895 20 l0 -2.52 l0.74 0 l0.38 -0.38 l0 -1.58 l2.52 0 l0 2.62 l-1.86 1.86 l-1.78 0 z M39.6095 10.48 l0 -1.58 l-0.38 -0.38 l-0.74 0 l0 -2.52 l1.78 0 l1.86 1.86 l0 2.62 l-2.52 0 z M45.68599999999999 12.58 l0 -6.58 l2.52 0 l0 6.58 l-2.52 0 z M45.68599999999999 20 l0 -6.58 l2.52 0 l0 6.58 l-2.52 0 z M51.3625 20 l1.14 -5.6 l4.28 0 l-0.86 -4.28 l-0.68 3.44 l-2.58 0 l1.52 -7.56 l3.48 0 l2.2 10.92 l-5.3 0 l-0.62 3.08 l-2.58 0 z M57.9225 20 l-0.46 -2.24 l2.58 0 l0.44 2.24 l-2.56 0 z M63.638999999999996 16.64 l0 -10.64 l2.52 0 l0 10.64 l-2.52 0 z M63.638999999999996 20 l0 -2.52 l2.52 0 l0 2.52 l-2.52 0 z M66.999 20 l0 -2.52 l3.08 0 l0 2.52 l-3.08 0 z M73.6355 12.58 l0 -6.58 l2.52 0 l0 6.58 l-2.52 0 z M73.6355 20 l0 -6.58 l2.52 0 l0 6.58 l-2.52 0 z M79.71199999999999 20 l0 -1.96 l5.54 -12.04 l1.88 0 l0 1.96 l-5.54 12.04 l-1.88 0 z M82.51199999999999 20 l1.16 -2.52 l3.46 0 l0 2.52 l-4.62 0 z M79.99199999999999 8.52 l0 -2.52 l4.34 0 l-1.16 2.52 l-3.18 0 z M90.68849999999999 14.26 l0 -8.26 l2.52 0 l0 8.26 l-2.52 0 z M90.68849999999999 20 l0 -4.9 l2.52 0 l0 4.9 l-2.52 0 z M94.04849999999999 20 l0 -2.52 l3.5 0 l0 2.52 l-3.5 0 z M94.04849999999999 14.26 l0 -2.52 l2.38 0 l0 2.52 l-2.38 0 z M94.04849999999999 8.52 l0 -2.52 l3.5 0 l0 2.52 l-3.5 0 z M104.46499999999999 20 l0 -2.52 l1.86 0 l0.38 -0.38 l0 -8.2 l-0.38 -0.38 l-1.86 0 l0 -2.52 l2.9 0 l1.86 1.86 l0 10.28 l-1.86 1.86 l-2.9 0 z M101.10499999999999 20 l0 -14 l2.52 0 l0 14 l-2.52 0 z M120.398 14.26 l-1.86 -1.86 l0 -4.54 l1.86 -1.86 l1.64 0 l0 2.52 l-0.6 0 l-0.38 0.38 l0 2.46 l0.38 0.38 l3.08 0 l1.86 1.86 l0 0.66 l-5.98 0 z M120.398 20 l-1.86 -1.86 l0 -2.62 l2.52 0 l0 1.58 l0.38 0.38 l2.04 0 l0.38 -0.38 l0 -2 l2.52 0 l0 3.04 l-1.86 1.86 l-4.12 0 z M123.858 10.48 l0 -1.58 l-0.38 -0.38 l-0.6 0 l0 -2.52 l1.64 0 l1.86 1.86 l0 2.62 l-2.52 0 z M134.49450000000002 20 l0 -2.52 l0.8 0 l0.38 -0.38 l0 -8.2 l-0.38 -0.38 l-0.8 0 l0 -2.52 l1.84 0 l1.86 1.86 l0 10.28 l-1.86 1.86 l-1.84 0 z M131.7945 20 l-1.86 -1.86 l0 -10.28 l1.86 -1.86 l1.84 0 l0 2.52 l-0.8 0 l-0.38 0.38 l0 8.2 l0.38 0.38 l0.8 0 l0 2.52 l-1.84 0 z M141.751 20 l0 -14 l2.52 0 l0 14 l-2.52 0 z M145.111 14.26 l0 -2.52 l2.38 0 l0 2.52 l-2.38 0 z M145.111 8.52 l0 -2.52 l3.5 0 l0 2.52 l-3.5 0 z M154.82750000000001 20 l0 -10.64 l2.52 0 l0 10.64 l-2.52 0 z M152.16750000000002 8.52 l0 -2.52 l7.84 0 l0 2.52 l-7.84 0 z M170.244 20 l-0.4 -2.56 l1.28 -8.18 l0.74 4.8 l1.26 -8.06 l2.56 0 l-2.18 14 l-3.26 0 z M165.34400000000002 20 l-2.18 -14 l2.56 0 l2.18 14 l-2.56 0 z M168.66400000000002 19.52 l-1.26 -8.18 l0.82 -5.34 l2.4 0 l0.08 0.54 z M178.44050000000001 20 l1.14 -5.6 l4.28 0 l-0.86 -4.28 l-0.68 3.44 l-2.58 0 l1.52 -7.56 l3.48 0 l2.2 10.92 l-5.3 0 l-0.62 3.08 l-2.58 0 z M185.00050000000002 20 l-0.46 -2.24 l2.58 0 l0.44 2.24 l-2.56 0 z M196.417 20 l-1.36 -5.18 l-0.98 0 l0 -2.52 l1.58 0 l0.38 -0.38 l0 -3.02 l-0.38 -0.38 l-1.58 0 l0 -2.52 l2.62 0 l1.86 1.86 l0 5.1 l-1.08 1.1 l1.54 5.94 l-2.6 0 z M190.717 20 l0 -4.34 l2.52 0 l0 4.34 l-2.52 0 z M190.717 14.82 l0 -8.82 l2.52 0 l0 8.82 l-2.52 0 z M202.3735 14.26 l0 -8.26 l2.52 0 l0 8.26 l-2.52 0 z M202.3735 20 l0 -4.9 l2.52 0 l0 4.9 l-2.52 0 z M205.7335 20 l0 -2.52 l3.5 0 l0 2.52 l-3.5 0 z M205.7335 14.26 l0 -2.52 l2.38 0 l0 2.52 l-2.38 0 z M205.7335 8.52 l0 -2.52 l3.5 0 l0 2.52 l-3.5 0 z"></path></g>
			</g>
		</svg>
	