<?xml version="1.0"?>
<svg width="2936.5079365079364" height="758.730158730159" xmlns="http://www.w3.org/2000/svg" xmlns:svg="http://www.w3.org/2000/svg" version="1.1">
 <g class="layer">
  <title>Layer 1</title>
  <defs id="SvgjsDefs1175">
   <linearGradient id="SvgjsLinearGradient1187">
    <stop id="SvgjsStop1188" offset="0" stop-color="#fbb040"/>
    <stop id="SvgjsStop1189" offset="1" stop-color="#f9ed32"/>
   </linearGradient>
  </defs>
  <g fill="#ffffff" id="SvgjsG1178" transform="matrix(11.967 0 0 11.967 60.2179 697.67)">
   <path d="m8.29,-29.97l0,-5.04l4.48,0l0,-11.48l5.04,0l0,16.52l-9.52,0zm-6.72,11.48l0,-28l5.04,0l0,28l-5.04,0zm11.2,0l0,-9.8l5.04,0l0,9.8l-5.04,0zm7.44,0l2.28,-11.2l8.56,0l-1.72,-8.56l-1.36,6.88l-5.16,0l3.04,-15.12l6.96,0l4.4,21.84l-10.6,0l-1.24,6.16l-5.16,0zm13.12,0l-0.92,-4.48l5.16,0l0.88,4.48l-5.12,0zm18.92,0l-2.72,-10.36l-1.96,0l0,-5.04l3.16,0l0.76,-0.76l0,-6.04l-0.76,-0.76l-3.16,0l0,-5.04l5.24,0l3.72,3.72l0,10.2l-2.16,2.2l3.08,11.88l-5.2,0zm-11.4,0l0,-8.68l5.04,0l0,8.68l-5.04,0zm0,-10.36l0,-17.64l5.04,0l0,17.64l-5.04,0zm24.72,10.36l0,-21.28l5.04,0l0,21.28l-5.04,0zm-5.32,-22.96l0,-5.04l15.68,0l0,5.04l-15.68,0zm22.6,22.96l-3.72,-3.72l0,-20.56l3.72,-3.72l3.56,0l0,5.04l-1.48,0l-0.76,0.76l0,16.4l0.76,0.76l1.48,0l0,5.04l-3.56,0zm5.24,0l0,-5.04l1.48,0l0.76,-0.76l0,-3.16l5.04,0l0,5.24l-3.72,3.72l-3.56,0zm2.24,-19.04l0,-3.16l-0.76,-0.76l-1.48,0l0,-5.04l3.56,0l3.72,3.72l0,5.24l-5.04,0zm17.36,19.04l0,-5.04l1.6,0l0.76,-0.76l0,-16.4l-0.76,-0.76l-1.6,0l0,-5.04l3.68,0l3.72,3.72l0,20.56l-3.72,3.72l-3.68,0zm-5.4,0l-3.72,-3.72l0,-20.56l3.72,-3.72l3.68,0l0,5.04l-1.6,0l-0.76,0.76l0,16.4l0.76,0.76l1.6,0l0,5.04l-3.68,0zm27.4,0l-2.72,-10.36l-1.96,0l0,-5.04l3.16,0l0.76,-0.76l0,-6.04l-0.76,-0.76l-3.16,0l0,-5.04l5.24,0l3.72,3.72l0,10.2l-2.16,2.2l3.08,11.88l-5.2,0zm-11.4,0l0,-8.68l5.04,0l0,8.68l-5.04,0zm0,-10.36l0,-17.64l5.04,0l0,17.64l-5.04,0zm19.4,-1.12l0,-16.52l5.04,0l0,16.52l-5.04,0zm0,11.48l0,-9.8l5.04,0l0,9.8l-5.04,0zm6.72,0l0,-5.04l7,0l0,5.04l-7,0zm0,-11.48l0,-5.04l4.76,0l0,5.04l-4.76,0zm0,-11.48l0,-5.04l7,0l0,5.04l-7,0zm23.12,22.96l0,-21.28l5.04,0l0,21.28l-5.04,0zm-5.32,-22.96l0,-5.04l15.68,0l0,5.04l-15.68,0zm18.88,11.48l0,-16.52l5.04,0l0,16.52l-5.04,0zm0,11.48l0,-9.8l5.04,0l0,9.8l-5.04,0zm6.72,0l0,-5.04l7,0l0,5.04l-7,0zm0,-11.48l0,-5.04l4.76,0l0,5.04l-4.76,0zm0,-11.48l0,-5.04l7,0l0,5.04l-7,0zm13.92,22.96l-3.72,-3.72l0,-20.56l3.72,-3.72l3.56,0l0,5.04l-1.48,0l-0.76,0.76l0,16.4l0.76,0.76l1.48,0l0,5.04l-3.56,0zm5.24,0l0,-5.04l1.48,0l0.76,-0.76l0,-3.16l5.04,0l0,5.24l-3.72,3.72l-3.56,0zm2.24,-19.04l0,-3.16l-0.76,-0.76l-1.48,0l0,-5.04l3.56,0l3.72,3.72l0,5.24l-5.04,0zm14.96,7.56l0,-5.04l4.48,0l0,-11.48l5.04,0l0,16.52l-9.52,0zm-6.72,11.48l0,-28l5.04,0l0,28l-5.04,0zm11.2,0l0,-9.8l5.04,0l0,9.8l-5.04,0z" id="svg_4"/>
  </g>
  <g fill="url(#SvgjsLinearGradient1187)" id="SvgjsG1179" transform="matrix(7.89364 0 0 7.89364 644.479 1206.61)">
   <path d="m2.66,-74.42l-1.86,-1.86l0,-4.54l1.86,-1.86l1.64,0l0,2.52l-0.6,0l-0.38,0.38l0,2.46l0.38,0.38l3.08,0l1.86,1.86l0,0.66l-5.98,0zm0,5.74l-1.86,-1.86l0,-2.62l2.52,0l0,1.58l0.38,0.38l2.04,0l0.38,-0.38l0,-2l2.52,0l0,3.04l-1.86,1.86l-4.12,0zm3.46,-9.52l0,-1.58l-0.38,-0.38l-0.6,0l0,-2.52l1.64,0l1.86,1.86l0,2.62l-2.52,0zm9.44,4.62l0,-2.52l1.58,0l0.38,-0.38l0,-3.3l-0.38,-0.38l-1.58,0l0,-2.52l2.62,0l1.86,1.86l0,5.38l-1.86,1.86l-2.62,0zm-3.36,4.9l0,-4.06l2.52,0l0,4.06l-2.52,0zm0,-4.9l0,-9.1l2.52,0l0,9.1l-2.52,0zm11.39,-0.84l0,-8.26l2.52,0l0,8.26l-2.52,0zm0,5.74l0,-4.9l2.52,0l0,4.9l-2.52,0zm3.36,0l0,-2.52l3.5,0l0,2.52l-3.5,0zm0,-5.74l0,-2.52l2.38,0l0,2.52l-2.38,0zm0,-5.74l0,-2.52l3.5,0l0,2.52l-3.5,0zm8.92,11.48l-1.86,-1.86l0,-10.28l1.86,-1.86l1.78,0l0,2.52l-0.74,0l-0.38,0.38l0,8.2l0.38,0.38l0.74,0l0,2.52l-1.78,0zm2.62,0l0,-2.52l0.74,0l0.38,-0.38l0,-1.58l2.52,0l0,2.62l-1.86,1.86l-1.78,0zm1.12,-9.52l0,-1.58l-0.38,-0.38l-0.74,0l0,-2.52l1.78,0l1.86,1.86l0,2.62l-2.52,0zm6.08,2.1l0,-6.58l2.52,0l0,6.58l-2.52,0zm0,7.42l0,-6.58l2.52,0l0,6.58l-2.52,0zm5.67,0l1.14,-5.6l4.28,0l-0.86,-4.28l-0.68,3.44l-2.58,0l1.52,-7.56l3.48,0l2.2,10.92l-5.3,0l-0.62,3.08l-2.58,0zm6.56,0l-0.46,-2.24l2.58,0l0.44,2.24l-2.56,0zm5.72,-3.36l0,-10.64l2.52,0l0,10.64l-2.52,0zm0,3.36l0,-2.52l2.52,0l0,2.52l-2.52,0zm3.36,0l0,-2.52l3.08,0l0,2.52l-3.08,0zm6.64,-7.42l0,-6.58l2.52,0l0,6.58l-2.52,0zm0,7.42l0,-6.58l2.52,0l0,6.58l-2.52,0zm6.07,0l0,-1.96l5.54,-12.04l1.88,0l0,1.96l-5.54,12.04l-1.88,0zm2.8,0l1.16,-2.52l3.46,0l0,2.52l-4.62,0zm-2.52,-11.48l0,-2.52l4.34,0l-1.16,2.52l-3.18,0zm10.7,5.74l0,-8.26l2.52,0l0,8.26l-2.52,0zm0,5.74l0,-4.9l2.52,0l0,4.9l-2.52,0zm3.36,0l0,-2.52l3.5,0l0,2.52l-3.5,0zm0,-5.74l0,-2.52l2.38,0l0,2.52l-2.38,0zm0,-5.74l0,-2.52l3.5,0l0,2.52l-3.5,0zm10.41,11.48l0,-2.52l1.86,0l0.38,-0.38l0,-8.2l-0.38,-0.38l-1.86,0l0,-2.52l2.9,0l1.86,1.86l0,10.28l-1.86,1.86l-2.9,0zm-3.36,0l0,-14l2.52,0l0,14l-2.52,0zm19.3,-5.74l-1.86,-1.86l0,-4.54l1.86,-1.86l1.64,0l0,2.52l-0.6,0l-0.38,0.38l0,2.46l0.38,0.38l3.08,0l1.86,1.86l0,0.66l-5.98,0zm0,5.74l-1.86,-1.86l0,-2.62l2.52,0l0,1.58l0.38,0.38l2.04,0l0.38,-0.38l0,-2l2.52,0l0,3.04l-1.86,1.86l-4.12,0zm3.46,-9.52l0,-1.58l-0.38,-0.38l-0.6,0l0,-2.52l1.64,0l1.86,1.86l0,2.62l-2.52,0zm10.63,9.52l0,-2.52l0.8,0l0.38,-0.38l0,-8.2l-0.38,-0.38l-0.8,0l0,-2.52l1.84,0l1.86,1.86l0,10.28l-1.86,1.86l-1.84,0zm-2.7,0l-1.86,-1.86l0,-10.28l1.86,-1.86l1.84,0l0,2.52l-0.8,0l-0.38,0.38l0,8.2l0.38,0.38l0.8,0l0,2.52l-1.84,0zm9.96,0l0,-14l2.52,0l0,14l-2.52,0zm3.36,-5.74l0,-2.52l2.38,0l0,2.52l-2.38,0zm0,-5.74l0,-2.52l3.5,0l0,2.52l-3.5,0zm9.72,11.48l0,-10.64l2.52,0l0,10.64l-2.52,0zm-2.66,-11.48l0,-2.52l7.84,0l0,2.52l-7.84,0zm18.07,11.48l-0.4,-2.56l1.28,-8.18l0.74,4.8l1.26,-8.06l2.56,0l-2.18,14l-3.26,0zm-4.9,0l-2.18,-14l2.56,0l2.18,14l-2.56,0zm3.32,-0.48l-1.26,-8.18l0.82,-5.34l2.4,0l0.08,0.54l-2.04,12.98zm9.78,0.48l1.14,-5.6l4.28,0l-0.86,-4.28l-0.68,3.44l-2.58,0l1.52,-7.56l3.48,0l2.2,10.92l-5.3,0l-0.62,3.08l-2.58,0zm6.56,0l-0.46,-2.24l2.58,0l0.44,2.24l-2.56,0zm11.42,0l-1.36,-5.18l-0.98,0l0,-2.52l1.58,0l0.38,-0.38l0,-3.02l-0.38,-0.38l-1.58,0l0,-2.52l2.62,0l1.86,1.86l0,5.1l-1.08,1.1l1.54,5.94l-2.6,0zm-5.7,0l0,-4.34l2.52,0l0,4.34l-2.52,0zm0,-5.18l0,-8.82l2.52,0l0,8.82l-2.52,0zm11.65,-0.56l0,-8.26l2.52,0l0,8.26l-2.52,0zm0,5.74l0,-4.9l2.52,0l0,4.9l-2.52,0zm3.36,0l0,-2.52l3.5,0l0,2.52l-3.5,0zm0,-5.74l0,-2.52l2.38,0l0,2.52l-2.38,0zm0,-5.74l0,-2.52l3.5,0l0,2.52l-3.5,0z" id="svg_5"/>
  </g>
  <g id="selectorGroup4">
   <path fill="none" id="selectedBox4" stroke="#22C" stroke-dasharray="5,5"/>
  </g>
 </g>
</svg>